<?xml version="1.0" encoding="UTF-8"?>
<svg viewBox="0 0 270.45 264.69" xmlns="http://www.w3.org/2000/svg">
 <path d="m155.04 13.202c8.526 0.436 16.127-1.076 24.374 2.539 4.555 1.996 8.366 5.352 12.063 8.588 4.743 4.153 2.928 5.71 9.774 5.634 8.915-0.098999 17.904-0.226 24.384 7.11 4.285 4.851 7.283 14.921 1.522 19.298 3.09 2.335 5.192 6.48 6.096 10.156 0.48099 1.958-0.70801 6.756 0 8.127 0.627 1.214 5.31 3.281 6.601 4.57 4.371 4.368 5.171 9.982 2.426 15.462-0.36299 0.72601 6.332 11.246 6.209 15.01-0.19 5.849-5.092 9.664-6.095 14.221-1.041 4.729 0.892 9.733-4.317 13.204-3.443 2.295-1.647 9.302-4.572 13.205-2.732 3.645-9.216 5.156-9.904 8.633 20.211 9.748 24.686 33.032 26.229 53.033 0.73799 9.558 0.688 19.055 0.688 28.639 0 7.382-4.064 9.863-11.175 10.761 5.035 1.849 8.485 1.936 12.697 5.584-7.259 4.282-18.935 2.472-27.093 3.1-10.317 0.79501-20.708 0.45602-31.055 0.45602-22.011 0-44.175 2.737-66.146 4.024-19.386 1.136-34.905-4.904-52.06-13.481-9.699-4.849-19.886-8.672-29.554-13.509-4.074-2.038-8.771-3.796-11.966-6.998-3.604-3.61 8.443-3.953 9.649-4.063-9.412-5.173-12.349-12.742-10.557-23.488 1.655-9.927 4.107-20.175 9.545-28.82 5.504-8.751 13.032-15.408 22.218-19.997 5.583-2.789 22.729-6.271 18.917-15.554-11.759 9.342-44.658 23.974-52.067 1.75-3.194-9.58-7.071-18.312-5.32-28.665 1.879-11.116 8.951-20.14 17.05-27.618 16.155-14.917 34.187-28.68 52.271-41.198 17.625-12.2 38.339-24.168 59.168-29.713"/>
 <g fill="#f00">
  <path d="m158.08 131.03c1.91-3.62 1.912-6.93 6.606-6.601 6.972 0.488 12.492 9.736 13.334 15.649 0.355 2.498 1.496 10.758-1.907 10.758-3.455 0-6.651-0.644-10.158-0.254-7.835 0.871-14.85 2.087-22.093 5.334-5.45 2.443-10.674 7.378-16.759 3.555-5.423-3.408-3.46-9.541-1.017-14.727 4.994-10.597 24.755-31.937 31.994-13.714" stroke-width="null"/>
  <path d="m157.07 125.44c3.131-2.9 5.796-2.982 9.139-5.078 4.357-2.732 6.799-9.091 8.123-13.712 0.48601 5.645-1.916 12.843-7.104 15.743 2.494 0.977 5.292 2.779 6.601 4.573 3.559-3.171 10.778-12.6 8.634-17.777-1.981-4.785-13.111-5.91-17.27-6.602 0.123 7.44-4.269 18.477-12.696 19.299 1.692 0.694 4.927 3.903 4.573 3.554"/>
  <path d="m107.3 255.96c23.53 3.357 48.54 0.17902 72.115-2.03 12.026-1.127 24.087-2.511 36.065-4.065 6.041-0.784 29.062-0.991 30.722-7.616 2.436-9.717 0.327-20.935-0.43401-30.766-0.78999-10.212-1.478-22.55-6.425-31.702-10.237-18.938-31.916-22.057-50.274-28.439-3.109-1.081-6.311-1.965-9.143-3.557-1.554 6.111 11.433 5.368 15.779 6.998 5.78 2.168 12.377 10.293 16.723 10.777 5.168 0.57599 5.626-2.932 9.14 3.047 2.494 4.243 4.92 9.227 0 12.188 1.861 2.638 1.519 6.056-3.046 6.604 7.19 12.767-15.319 21.104-24.056 24.226-10.476 3.742-24.778 4.008-35.727 2.022-24.217-4.392-44.507-29.007-26.046-51.133-18.044 1.476-10.146-19.588-4.568-27.933-8.101-0.91701-2.88-13.906-1.778-18.285 1.422-5.651-2.688-10.493-7.875-7.616-4.935 2.738-6.318 13.708-4.567 18.284 1.187 3.101 5.21 6.325 3.299 10.155-1.555 3.117-1.349 7.268-3.046 10.665-4.129 8.266-0.787 14.834 7.872 16.761-5.689 1.968-11.304-1.825-12.191-7.619-0.875-5.711 3.004-10.968 4.32-16.251 1.28-5.141-0.447-7.985-2.54-12.189-3.164-6.358 1.551-16.95 5.838-21.837-3.679-0.799-7.975-2.242-10.158 0-3.71 3.81-3.327 17.63-2.028 22.345-5.513 1.289-8.671-0.69-13.208 2.541-1.009 0.718-5.335 4.061-4.823 5.079 0.916 1.82 1.447 6.594 0.254 8.379-5.023 7.511-16.193 9.731-23.869 13.966-9.59 5.291-15.939 12.262-20.313 22.091-3.714 8.345-6.095 18.32-6.095 27.455 0 10.214 6.154 14.787 14.476 19.777 17.963 10.77 36.726 18.831 55.607 27.678"/>
 </g>
 <path d="m105.27 176.23c-3.088 10.264-7.533 19.498-8.26 30.416-0.785 11.781 1.34 22.352 4.704 33.575-5.225-9.698-8.688-19.854-7.993-31.056 0.655-10.546 2.612-25.84 11.549-32.935" fill="#fff"/>
 <g fill="#f00">
  <path d="m154.02 216.35c-1.992 0-6.29-0.84299-8.123 0-3.229 1.483-2.349 3.686-4.063 7.112-3.234 6.461-14.413 14.011-21.077 7.362-6.371-6.357-1.7-15.054 6.896-16.129 9.859-1.232 17.796-0.332 26.367 1.655"/>
  <path d="m126.6 217.87c-4.662 3.033-10.567 9.674-1.525 11.935 2.854 0.713 11.17 1.419 11.17-3.301 0-3.395-2.585-5.688-5.583-6.095 0.927 2.324 0.388 4.734-1.017 6.094 0.011002-3.289-1.606-6.471-3.045-8.633"/>
  <path d="m144.38 228.03c2.957 4.345-0.90601 10.259-6.096 9.143 2.698-1.57 6.698-6.32 6.096-9.143"/>
 </g>
 <path d="m105.27 151.34c-3.217 4.287-4.119 9.3-1.524 14.219-8.008-2.452-4.168-11.927 1.524-14.219" fill="#fff"/>
 <g fill="#f00">
  <path d="m160.62 143.22c0.75101-5.963 7.618-6.607 7.618 0 0 7.293-6.963 5.022-7.618 0"/>
  <path d="m145.9 131.03c3.408-5.467 10.459-3.618 7.362 2.54-3.418 6.798-7.505 1.694-7.362-2.54"/>
 </g>
 <path d="m167.23 152.86c15.112 0 30.174 2.278 40.629 14.223-5.69 3.684-13.894 2.023-19.302 5.078-2.758 1.558-3.036 0.69499 0 3.554 3.154 2.969 8.606 3.55 12.473 4.836 2.501 0.832 12.412-0.059006 12.412 2.021 0 5.135-1.148 8.661-3.441 13.233-4.806 9.588-18.342 11.657-27.68 14.208-20.217 5.523-42.527-0.783-52.281-20.303-11.572-23.158 20.58-34.631 37.19-36.85" fill="#fff"/>
 <path d="m192.11 173.69c8.16 5.846 20.087 6.724 29.456 3.048-0.479-1.98-1.212-6.721-3.046-8.127-2.489-1.909-5.852 0.601-9.396 1.778-5.32 1.768-11.415 3.292-17.014 3.301"/>
 <path d="m114.92 103.6c1.219-5.676 2.021-9.143 7.62-9.143 4.144 0 11.087 0.84 9.902 5.589-1.244 4.984-1.066 13.905 2.795 17.773 2.187 2.19 7.727 1.873 10.665 3.556-4.368 1.983-12.19 5.611-14.475 10.157-0.892 1.773-3.891-1.134-4.317-2.03-0.931-1.958 0.507-3.505 0.507-5.588 0-5.362 4.049-10.259 1.015-14.728-2.921-4.304-9.147-5.586-13.712-5.586" fill="#f00"/>
 <path d="m218.77 48.502c-9.144-1.542-25.267 0.425-22.095 13.207 3.521 14.187 25.776-5.266 29.204 5.585 2.356 7.459-6.488 3.522-11.079 4.834-4.251 1.214-19.868 7.871-8.473 12.433 3.771 1.509 6.386 1.736 10.41 1.016 3.084-0.552 7.335-3.574 10.156-3.557 3.708 0.023003 7.042 3.63 8.125 7.619-5.521-0.924-16.517-2.9-20.313 2.793-3.079 4.618-4.497 8.471 2.032 11.428 4.45 2.016 14.403 0.726 18.536-2.032 3.542-2.363 4.293 8.678 1.777 11.172-4.156-7.124-23.925-8.403-25.392 1.523-1.584 10.722 15.937 10.157 22.348 10.157-1.202 4.732-2.332 8.952-7.368 5.587-4.056-2.711-12.521-6.283-17.015-2.539-11.159 9.3 11.965 15.868 18.792 13.205 1.466 3.28-1.709 6.609-5.078 6.601-3.164-0.007996-6.609-4.181-10.156-5.078-12.299-3.113-6.333 8.763 2.032 11.174-0.549 3.969-10.222-0.532-13.166-1.637-5.064-1.899-10.893-2.713-15.781-4.964-5.512-2.538-4.147-4.077-5.079-9.653-0.26199-1.566-3.129-8.549-2.54-9.14 3.059-3.07 5.488-6.621 6.348-10.918 1.336-6.678 2.459-9.252-3.808-12.952-3.627-2.142-10.785-6.005-15.237-4.571-5.442 1.753-1.076 4.922-4.063 9.396-3.49 5.226-5.424 9.905-12.186 9.905-3.221 0-11.519-3.563-13.205-6.096-4.967-7.46 5.165-17.235-6.351-21.077-7.263-2.422-14.053 0.692-17.013 6.858-0.481 1.003 0.154 3.126 0.511 4.062-5.26-0.885-7.886-2.978-9.011 3.781-1.087 6.532-3.739 13.404-1.658 20.09-1.862-0.339-3.724-0.67899-5.585-1.018 3.209-4.525 5.168-12.253 5.08-17.775-0.045998-2.875-0.618-7.055-2.05-9.556-2.544-4.445-4.678-4.897-2.523-9.236 3.041-6.122 12.61-10.604 18.031-14.219 6.145-4.099 12.68-7.918 19.554-10.666 2.19 11.044 15.24 13.253 24.886 12.189 11.901-1.313 21.147-8.623 28.591-17.549 3.516-4.217 7.479-9.449 9.242-14.7 1.492-4.445 2.986-4.316 8.381-4.316 2.856 0 7.508-0.112 9.649 2.031 1.837 1.841 4.059 5.732 2.54 6.603" fill="#fff"/>
 <path d="m184.5 125.95c5.251 4.208 6.338 13.183 0.51201 17.267 2.453-5.494 0.625-11.777-0.51201-17.267"/>
 <path d="m192.11 131.54c3.769 3.733 2.313 9.226-2.026 11.679 1.478-3.765 2.36-8.43 2.026-11.679"/>
 <g fill="#f00">
  <path d="m219.03 149.82c3.399 1.105 7.563 0.55701 10.162-2.033 2.744-2.733 0.35501-7.611 3.553-8.633 0.66699 10.985-8.068 16.443-18.282 12.188-2.151-0.896-7.707-3.405-5.078-5.588 2.448-2.031 9.427 3.823 9.645 4.066"/>
  <path d="m217.51 154.39c0.983 0.044998 2.106 0.70099 3.05 1.015-0.076004 0.85399-0.536 2.341-1.018 3.048-1.891-1.18-2.052-2.281-2.032-4.063"/>
  <path d="m216.49 51.801c-1.481 3.347-10.312 8.703-13.201 5.586 5.143 6.753 18.437-3.052 18.279-10.158-0.22501-10.194-16.423-11.77-23.866-8.633-0.545-1.776-1.514-3.462-2.538-5.08 7.505-2.042 21.388-1.447 27.167 4.318 7.812 7.791 4.102 15.779-3.299 21.331-3.757 2.818-19.627 8.468-20.317-0.255-0.7-8.856 15.825-5.978 17.775-7.109"/>
  <path d="m224.62 59.418c10.54 6.523 4.358 20.957-6.35 23.108-3.615 0.726-14.941 1.655-11.938-3.807 2.399-4.363 12.231-4.897 16.252-4.064-2.648 2.729-6.358 4.259-10.156 4.064 8.699 6.782 22.226-10.214 10.156-17.775 0.716-0.278 1.041-1.033 2.036-1.526"/>
  <path d="m230.19 77.719c2.953 4 9.105 6.076 7.11 12.187-1.904 5.833-11.843 9.871-16.759 6.093 4.309 0.245 9.36-0.553 11.681-4.57-4.122-0.556-13.133-0.884-15.739 3.557-4.609 7.853 9.211 5.715 13.201 4.57 5.345-1.534 11.811-6.542 11.678-12.697-0.12099-5.605-5.415-8.285-9.646-10.666-0.192 0.351-1.932 2.416-1.526 1.526"/>
  <path d="m239.34 98.015c13.337 7.602 0.241 26.105-12.413 24.002-1.717-0.286-17.752-5.082-10.945-8.512 6.378-3.214 13.077-2.999 18.791 1.776-2.725 2.608-9.785 1.093-12.697-1.014 1.359 10.644 30.979 1.448 15.238-14.222 0.774-0.359 1.677-1.808 2.026-2.03"/>
  <path d="m235.28 123.92c3.389 9.607-15.551 19.189-20.82 9.649 2.766 1.296 7.108 1.55 10.159 0.509-3.86-3.946-7.876-4.57-12.699-4.57-4.71 0-0.026001 8.008 2.028 9.14 9.008 4.962 30.728-3.156 23.872-15.744-0.87001 0.763-2.516 1-2.54 1.016"/>
  <path d="m50.929 83.289c18.414-14.322 36.549-28.627 56.12-41.391 17.714-11.552 37.816-26.964 60.183-24.124 9.938 1.262 21.377 6.752 25.392 16.759 3.971 9.897-4.02 19.706-10.668 26.41-7.456 7.519-17.46 13.687-28.438 13.202-4.639-0.20499-10.167-2.037-13.458-5.332-4.76-4.766 0.81-8.229 5.329-10.411 4.049-1.955 9.196-3.067 13.207-0.508-9.623-10.235-27.05 3.595-36.246 8.54-12.185 6.553-30.499 15.988-33.837 30.564 3.904-6.161 7.711 0.419 8.884 5.08 1.584 6.292 1.434 14.148-2.811 19.449-10.079 12.586-21.253 20.525-37.093 24.489-17.056 4.268-24.544-8.471-26.117-24.131-0.744-7.401 0.529-15.654 4.729-21.953 4.147-6.219 11.032-10.839 14.824-16.643"/>
 </g>
 <g fill="#fff">
  <path d="m173.83 24.376c12.656 4.767 19.71 19.813 7.107 28.441 2.877-11.613 3.44-20.309-7.107-28.441"/>
  <path d="m85.461 100.56c11.301 11.284 6.12 19.479-5.078 28.439 5.596-6.831 10.989-20.745 5.078-28.439"/>
 </g>
 <path d="m107.3 50.786c8.108-4.83 16.044-10.007 24.359-14.484 7.194-3.873 17.385-10.981 25.921-9.895-8.336 5.154-17.612 9.059-26.389 13.45-4.984 2.494-19.736 11.764-23.891 10.929"/>
 <path d="m139.8 0c-20.977 10.479-42.467 19.416-60.906 34.306-20.235 16.342-36.147 34.693-50.825 56.092 15.073-48.929 66.894-75.115 111.73-90.398"/>
 <path d="m107.3 4.57c-14.595 7.966-30.574 13.053-43.006 24.704-13.24 12.409-22.67 25.402-32.156 40.81 6.868-16.479 14.88-30.982 28.475-42.878 6.92-6.056 14.46-11.099 22.822-15.016 7.162-3.357 17.898-3.845 23.865-7.62"/>
 <path d="m11.822 119.35c0.837 15.238-0.992 26.667 9.14 39.612-7.066-4.462-10.564-11.005-12.344-18.997-1.885-8.469 1.235-14.123 3.204-20.615"/>
 <path d="m0.648 143.72c3.295 8.238 6.654 15.558 15.236 19.298-9.61 0.644-18.374-9.62-15.236-19.298"/>
 <path d="m27.058 196.54c-0.174 7.756-4.083 20.025 3.05 25.902-13.016-3.499-5.773-19.837-3.05-25.902"/>
 <path d="m245.95 156.93c5.435 5.106 9.982 7.146 12.809 14.69 2.737 7.308 1.037 15.404-0.11102 22.891-1.178-15.226-4.141-25.362-12.698-37.581"/>
 <path d="m265.75 162.52c3.854 6.854 1.027 19.693-1.018 26.915 4.512-7.906 9.715-19.959 1.018-26.915"/>
 <path d="m220.05 22.345c7.554 0 14.722 0.378 19.824 6.751 2.38 2.974 3.028 6.755 3.028 10.553 0 4.422 4.055 5.035 7.113 8.088 6.531 6.521 5.188 12.999 2.776 21.045-0.057007 0.188 6.263 5.235 6.869 7.903 0.616 2.71-0.23901 6.233-1.523 8.635-0.737-2.886-0.46201-6.505-1.774-9.142-1.41-2.834-3.95-2.679-5.331-4.571-2.301-3.151-0.64-4.268 0.131-8.915 0.63-3.796-0.18399-7.628-2.165-10.892-2.15-3.542-4.881-4.98-8.506-6.793-1.149-0.575-1.212-8.333-1.521-10.191-1.622-9.777-12.393-9.468-18.921-12.471"/>
 <path d="m254.07 36.055c1.771 1.704 3.748 4.053 4.062 6.604 0.229 1.857-1.829 5.888-0.76102 6.602 7.359 4.92 10.026 12.88 5.333 20.823 5.979-6.371 5.189-16.88-2.284-21.838-0.57599-0.382-0.229-5.854-1.271-7.617-1.303-2.202-3.362-3.113-5.079-4.574"/>
 <path d="m155.54 162.52c0.646-9.337 19.091-9.494 19.303 0 0.21999 9.923-19.732 9.629-19.303 0"/>
 <path d="m157.58 162.52c1.506-6.602 15.236-7.394 15.236 0.50699 0 7.522-14.057 6.135-15.236-0.50699" fill="#f00"/>
 <path d="m135.74 173.69c-1.446-9.737 17.218-12.967 18.792-3.554 1.511 9.033-15.587 12.428-18.792 3.554"/>
 <path d="m137.27 171.66c1.583-6.979 15.234-6.914 15.234 0.508 0 8.443-13.44 4.575-15.234-0.508" fill="#f00"/>
 <path d="m134.73 189.94c-1.099-9.24 17.432-13.083 19.296-3.556 1.86 9.51-16.545 12.684-19.296 3.556"/>
 <path d="m136.76 189.43c-0.252-6.838 13.716-9.833 14.725-2.539 1.009 7.305-12.453 9.46-14.725 2.539" fill="#f00"/>
 <path d="m149.96 200.1c1.783-8.876 20.082-9.338 19.808 0.509-0.28 10.025-18.406 8.782-19.808-0.509"/>
 <path d="m152 200.1c2.015-6.34 16.369-7.155 15.236 1.013-0.983 7.086-14.449 5.605-15.236-1.013" fill="#f00"/>
 <path d="m172.82 199.08c1.045-9.273 20.071-9.023 19.808 0.50801-0.267 9.659-19.139 9.241-19.808-0.50801"/>
 <path d="m174.85 199.08c2.024-6.334 16.379-7.155 15.237 1.018-0.99 7.091-14.443 5.593-15.237-1.018" fill="#f00"/>
 <path d="m191.6 189.43c0.39601-9.158 18.847-9.276 19.3 0 0.48401 9.894-19.744 9.66-19.3 0"/>
 <path d="m193.64 189.43c1.824-6.247 15.233-7.598 15.233 0.508 0 7.703-14.04 6.179-15.233-0.508" fill="#f00"/>
 <path d="m177.89 159.47c4.127-7.534 21.521-2.244 18.279 6.602-3.377 9.214-19.616 2.303-18.279-6.602"/>
 <path d="m179.93 160.48c3.517-4.955 15.959-2.603 13.711 4.572-2.453 7.828-14.219 0.342-13.711-4.572" fill="#f00"/>
 <path d="m166.21 171.66c3.006 0 12.187-0.52501 12.187 4.316 0 4.876-2.12 9.396-8.123 9.396-3.94 0-10.158-0.452-10.158-5.587-0.001007-5.756 4.041-5.831 6.094-8.125"/>
 <path d="m170.27 173.69c5.378 0.55301 9.277 6.647 2.541 8.635-7.058 2.081-9.084-7.049-2.541-8.635"/>
 <path d="m165.7 174.2c-1.917 3.53-3.514 8.501 2.034 9.648-6.931 0.814-7.027-7.159-2.034-9.648" fill="#fff"/>
 <g fill="#f00">
  <path d="m167.84 124.89c-1.992 0-6.29-0.84299-8.123 0-3.229 1.483-2.349 3.686-4.063 7.112-3.234 6.461-14.413 14.011-21.077 7.362-6.371-6.357-1.7-15.054 6.896-16.129 9.859-1.232 17.796-0.332 26.367 1.655"/>
  <path d="m166.84 126.89c-1.992 0-6.29-0.84299-8.123 0-3.229 1.483-2.349 3.686-4.063 7.112-3.234 6.461-14.413 14.011-21.077 7.362-6.371-6.357-1.7-15.054 6.896-16.129 9.859-1.232 17.796-0.332 26.367 1.655" stroke-width="null"/>
  <path d="m155.84 135.89c-1.992 0-6.29-0.84299-8.123 0-3.229 1.483-2.349 3.686-4.063 7.112-3.234 6.461-14.413 14.011-21.077 7.362-6.371-6.357-1.7-15.054 6.896-16.129 9.859-1.232 17.796-0.332 26.367 1.655"/>
  <path d="m152.84 145.89c-1.992 0-6.29-0.84299-8.123 0-3.229 1.483-2.349 3.686-4.063 7.112-3.234 6.461-14.413 14.011-21.077 7.362-6.371-6.357-1.7-15.054 6.896-16.129 9.859-1.232 17.796-0.332 26.367 1.655"/>
  <path d="m151.84 148.89c-1.992 0-6.29-0.84299-8.123 0-3.229 1.483-2.349 3.686-4.063 7.112-3.234 6.461-14.413 14.011-21.077 7.362-6.371-6.357-1.7-15.054 6.896-16.129 9.859-1.232 17.796-0.332 26.367 1.655"/>
  <path d="m165.84 122.89c-1.992 0-6.29-0.8429-8.123 0-3.229 1.4831-2.349 3.6861-4.063 7.112-3.234 6.4611-14.413 14.011-21.077 7.3621-6.371-6.357-1.7-15.054 6.896-16.129 9.8591-1.232 17.796-0.33201 26.367 1.6549"/>
  <g stroke-width="null">
   <ellipse cx="161.17" cy="130.93" rx="7.375" ry="9.125"/>
   <ellipse cx="166.92" cy="127.31" rx="6.375" ry="5"/>
   <ellipse cx="169.8" cy="132.06" rx="4.5" ry="5.5"/>
   <ellipse cx="166.17" cy="136.31" rx="5.125" ry="6"/>
   <ellipse cx="169.67" cy="130.31" rx="4.125" ry="5.75"/>
   <ellipse cx="172.55" cy="125.56" rx="1.75" ry="2"/>
   <ellipse cx="178.55" cy="148.31" rx="1.5" ry="1.75"/>
   <rect x="174.8" y="148.56" width="5.25" height="2"/>
   <rect x="170.05" y="143.81" width="4.75" height="4"/>
   <rect x="176.8" y="148.56" width="4" height="2.25"/>
  </g>
 </g>
</svg>
