<?xml version="1.0" encoding="UTF-8"?>
<svg viewBox="0 0 1000 1000" xmlns="http://www.w3.org/2000/svg" xmlns:xlink="http://www.w3.org/1999/xlink">
 <defs>
  <linearGradient id="ae" x1=".68452" x2=".4157" y1=".50002" y2="-.59484" spreadMethod="reflect" xlink:href="#a"/>
  <linearGradient id="aa" x1="3.0333" x2="-.73808" y1=".51977" y2=".51899" xlink:href="#b"/>
  <linearGradient id="ad" x1=".5" y1=".38221" y2=".50001" spreadMethod="reflect" xlink:href="#a"/>
  <linearGradient id="al" x1=".76189" x2="-.047819" y1=".5828" y2=".57104" xlink:href="#b"/>
  <linearGradient id="ac" x1=".49999" x2=".53219" y1=".16212" y2="1.0002" spreadMethod="reflect" xlink:href="#a"/>
  <linearGradient id="af" x1="-3e-6" x2="-3e-6" y1=".5" y2=".16108" spreadMethod="reflect">
   <stop stop-color="#bebebe" offset="0"/>
   <stop stop-color="#838383" offset="1"/>
  </linearGradient>
  <linearGradient id="ak" x1=".97404" x2=".094784" y1=".96485" y2=".027372" xlink:href="#b"/>
  <linearGradient id="ag" x1=".5" x2=".5912" y1="1" y2="-.52813" spreadMethod="reflect" xlink:href="#c"/>
  <linearGradient id="aj" x1=".97404" x2=".094784" y1=".96485" y2=".027371" xlink:href="#b"/>
  <linearGradient id="ah" x1=".35215" x2="1.0101" y1=".49505" y2=".51587" spreadMethod="reflect" xlink:href="#d"/>
  <linearGradient id="ai" y1=".5" y2=".5" xlink:href="#a"/>
  <linearGradient id="ab" x1=".8647" x2="1.107" y1=".049561" y2="1.2655">
   <stop offset="0"/>
   <stop stop-color="#a7a7a7" offset="1"/>
  </linearGradient>
  <linearGradient id="b">
   <stop stop-color="#d7d7d7" offset="0"/>
   <stop stop-color="#3a3a3a" offset="1"/>
  </linearGradient>
  <linearGradient id="a">
   <stop stop-color="#e9e9e9" offset="0"/>
   <stop stop-color="#868686" offset=".5"/>
   <stop stop-color="#d6d6d6" offset=".75"/>
   <stop stop-color="#767676" offset="1"/>
  </linearGradient>
  <linearGradient id="c">
   <stop stop-color="#212121" offset="0"/>
   <stop stop-color="#e4e4e4" offset="1"/>
  </linearGradient>
  <linearGradient id="z" x1=".34309" x2=".76049" y1="-.16865" y2=".36918" spreadMethod="reflect" xlink:href="#d"/>
  <linearGradient id="y" x1=".14845" x2=".61813" y1=".2747" y2="-.19546" spreadMethod="reflect" xlink:href="#c"/>
  <linearGradient id="x" x1=".71634" x2=".87701" y1="-.13239" y2=".30692" xlink:href="#c"/>
  <linearGradient id="w" x1="-.003656" x2=".86224" y1=".56184" y2=".56439">
   <stop stop-color="#fff" offset="0"/>
   <stop stop-color="#fff" stop-opacity="0" offset="1"/>
  </linearGradient>
  <linearGradient id="d">
   <stop stop-color="#909090" offset="0"/>
   <stop offset="1"/>
  </linearGradient>
  <radialGradient id="an" cx="279.6" cy="663.9" r="232.39" gradientTransform="matrix(.28395 .0061147 -.038437 2.0411 190.39 -1100.7)" gradientUnits="userSpaceOnUse" spreadMethod="reflect">
   <stop stop-color="#fff" offset="0"/>
   <stop stop-color="#878787" stop-opacity="0" offset="1"/>
  </radialGradient>
  <radialGradient id="am" cx="317.56" cy="663.51" r="232.39" gradientTransform="matrix(.89879 -.02377 .047201 2.0408 -15.892 -1093.3)" gradientUnits="userSpaceOnUse" spreadMethod="reflect" xlink:href="#a"/>
 </defs>
 <g transform="rotate(-90 503.3 362.81)">
  <g stroke-linecap="round" stroke-linejoin="round">
   <g stroke-width="5">
    <path d="m259.58-56.126c-20.25-1.7163-36.542 13.467-36.542 34.025v608.85c0 20.558 16.292 38.48 36.542 40.196l455.87 38.637c20.25 1.716 36.542-13.444 36.542-34.002v-301.86l0.645-311.68c3.459-22.808-2.107-31.095-28.084-34.251l-464.98-39.916z" fill="#9b9b9b" fill-opacity=".427"/>
    <path d="m205.8-120.83c-21.961 0.3914-38.984 17.686-38.984 40.596v697.03c0 24.438 19.362 45.73 43.433 47.77l541.9 45.935c24.071 2.04 43.432-15.992 43.432-40.429v-332.11l0.751 0.056c24.071 2.04 43.433-15.992 43.433-40.43v-321.35c0-24.438-19.362-45.785-43.433-47.826l-117.59-9.9544c-2.314-0.1962-4.57-0.1906-6.785-0.027802l-461.71-39.123c-1.505-0.1275-2.985-0.1651-4.449-0.139zm47.214 65.983c1.231-0.021996 2.488 0.031799 3.754 0.139l464.97 39.902c25.977 3.155 31.542 11.449 28.083 34.256l-0.639 311.67v301.86c0 20.558-16.287 35.722-36.537 34.006l-455.87-38.65c-20.25-1.716-36.537-19.621-36.537-40.179v-608.86c0-19.274 14.308-33.816 32.783-34.146z" fill="url(#ai)"/>
   </g>
   <g fill="none">
    <path d="m246.32-77.053c-21.424-1.8158-38.661 14.248-38.661 35.999v644.16c0 21.75 17.237 40.711 38.661 42.527l482.31 40.877c21.424 1.816 38.661-14.223 38.661-35.973v-319.36l0.682-329.76c3.66-24.13-2.228-32.898-29.713-36.236l-491.94-42.232z" stroke="url(#aj)" stroke-width="4.707"/>
    <path d="m259.58-56.126c-20.25-1.7163-36.542 13.467-36.542 34.025v608.85c0 20.558 16.292 38.48 36.542 40.196l455.87 38.637c20.25 1.716 36.542-13.444 36.542-34.002v-301.86l0.645-311.68c3.459-22.808-2.107-31.095-28.084-34.251l-464.98-39.916z" stroke="url(#ak)" stroke-width="4.449"/>
   </g>
   <rect transform="matrix(.91033 .13992 0 .98346 74.214 16.295)" x="796.75" y="-164.95" width="43.922" height="372.02" rx="21.961" ry="21.961" fill="#dedede" stroke="url(#al)" stroke-width="4.449"/>
  </g>
  <g stroke-linecap="round">
   <g stroke-linejoin="round">
    <path d="m338.83-35.284l236.3 126.77c11.104 5.957 20.043 21.448 20.043 34.733v667.32c0 13.284-8.939 19.183-20.043 13.226l-236.3-126.77c-11.104-5.958-20.043-21.449-20.043-34.733v-667.32c0-13.285 8.939-19.184 20.043-13.226z" fill-opacity=".418" stroke="#000" stroke-width=".83"/>
    <path d="m344.26-39.156l83.966 45.325c-68.95 254.91-57.363 467.14-12.59 705.85l-71.376-35.901c-11.104-5.9572-20.044-21.448-20.044-34.733v-667.32c0-13.285 8.9394-19.184 20.044-13.226z" fill="url(#w)" stroke-width=".933"/>
    <g fill-opacity=".354">
     <g transform="matrix(.73143 .39241 0 .87507 15.872 -122.8)" stroke-width=".987">
      <path d="m449.35-106.86h323.06l-16.282 11.614h-323.06l16.282-11.614z"/>
      <path d="m772.42-106.86c15.181 0 27.403 12.222 27.403 27.403l-16.282 11.614c0-15.181-12.222-27.403-27.403-27.403l16.282-11.614z"/>
      <path d="m799.82-79.457v762.59l-16.282 11.615v-762.59l16.282-11.614z"/>
      <path d="m799.82 683.13c0 9.2304-4.518 17.367-11.472 22.327l-16.282 11.614c6.9543-4.9604 11.472-13.097 11.472-22.327l16.282-11.614z"/>
      <path d="m788.35 705.46c-4.4836 3.1981-9.9799 5.0762-15.931 5.0762l-16.282 11.614c5.951 0 11.447-1.878 15.931-5.0762l16.282-11.614z" fill="url(#x)"/>
      <path d="m772.42 710.54h-323.06l-16.282 11.614h323.06l16.282-11.614z" fill="url(#y)"/>
      <path d="m449.35 710.54c-15.181 0-27.403-12.222-27.403-27.403l-16.282 11.614c0 15.181 12.222 27.403 27.403 27.403l16.282-11.614z" fill="url(#z)"/>
      <path d="m421.95 683.13v-762.59l-16.283 11.614v762.59l16.283-11.614v-0.001038z" fill="url(#aa)"/>
      <path d="m421.95-79.457c0-9.2304 4.5181-17.367 11.472-22.327l-16.282 11.614c-6.9543 4.9605-11.472 13.097-11.472 22.327l16.282-11.614z" fill="url(#ab)"/>
      <path d="m433.42-101.78c4.4836-3.1981 9.9799-5.0761 15.931-5.0761l-16.282 11.614c-5.951 0-11.447 1.878-15.931 5.0761l16.282-11.614z"/>
     </g>
     <g transform="matrix(.81832 0 0 .87507 5.549 -121.4)">
      <path d="m729.31 1098.5l-397.02-191.07-19.696 3.4729 397.02 191.07 19.696-3.4729z"/>
      <path d="m332.29 907.42c-18.489-8.8978-33.374-32.58-33.374-53.098l-19.696 3.473c0 20.518 14.884 44.2 33.373 53.098l19.696-3.4729z"/>
      <path d="m298.92 854.32v-811.43l-19.696 3.473v811.43l19.696-3.473z"/>
      <path d="m298.92 42.888c0-13.6 6.5392-22.296 16.333-24.023l-19.696 3.473c-9.7937 1.7269-16.333 10.423-16.333 24.023l19.696-3.473z"/>
      <path d="m315.25 18.866c4.9821-0.87848 10.806 0.046448 17.04 3.0466l-19.696 3.473c-6.2341-3.0002-12.058-3.9251-17.04-3.0466l19.696-3.473z" fill="url(#ac)"/>
      <path d="m332.29 21.912l397.02 191.07-19.696 3.473-397.02-191.07 19.696-3.473z" fill="url(#ad)"/>
      <path d="m729.31 212.98c18.489 8.8978 33.374 32.579 33.374 53.098l-19.696 3.473c0-20.519-14.885-44.2-33.374-53.098l19.696-3.473z" fill="url(#ae)"/>
      <path d="m762.69 266.08v811.43l-19.696 3.473v-811.43l19.696-3.473z" fill="url(#af)"/>
      <path d="m746.35 1101.5c-4.9821 0.87854-10.806-0.046387-17.041-3.0465l-19.696 3.4729c6.2341 3.0001 12.058 3.9252 17.041 3.0466l19.696-3.473z"/>
      <path d="m762.69 1077.5c0 13.6-6.5392 22.296-16.333 24.023l-19.696 3.473c9.7937-1.7269 16.333-10.423 16.333-24.023l19.696-3.473z" fill="url(#ag)"/>
     </g>
    </g>
    <path d="m250.96-101.51c-9.809-0.1407-16.674 7.8361-16.674 21.302v710.04c0 17.955 12.182 38.701 27.312 46.488l324.9 167.19c15.13 7.786 27.312-0.42102 27.312-18.376v-710.04c0-17.955-12.182-38.702-27.312-46.488l-324.9-167.19c-3.782-1.9465-7.369-2.8791-10.638-2.926zm72.933 63.004c2.63-0.099998 5.571 0.62199 8.694 2.298l236.29 126.78c11.104 5.957 20.049 21.444 20.049 34.729v667.32c0 13.284-8.945 19.192-20.049 13.235l-236.29-126.78c-11.104-5.958-20.048-21.445-20.048-34.73v-667.32c0-9.548 4.633-15.275 11.354-15.532v-9.99e-4z" fill="url(#am)" stroke="#636363" stroke-width=".89"/>
    <path d="m261.59 676.32c-15.13-7.787-27.312-28.533-27.312-46.488v-710.04c0-13.466 6.865-21.443 16.674-21.302 3.269 0.046898 6.856 0.9795 10.638 2.926v774.9z" fill="url(#an)"/>
    <path d="m256.85-72.421c5.94 6.8698 12.812 13.142 26.043 15.335 4.276-0.1481 5.977 6.6979 5.954 10.774v686.79c0 4.027-2.655 5.705-5.954 3.763l-26.043-15.335c-3.299-1.942-5.954-6.747-5.954-10.774v-686.79c0-4.0265 2.655-5.7045 5.954-3.7623z" fill="url(#ah)" stroke="#000" stroke-width=".89"/>
   </g>
   <g fill="none" stroke-width="4.449">
    <path d="m296.68-39.681v690.5" stroke="#000"/>
    <path d="m300.65-38.293v690.5" stroke="#fff"/>
   </g>
  </g>
  <path d="m256.25-72.635c6.7591 7.3766 14.566 14.104 28.536 15.702l-28.536-15.702z" fill="#bebebe" fill-rule="evenodd"/>
 </g>
</svg>
